<?xml version="1.0" encoding="UTF-8"?><svg id="a" xmlns="http://www.w3.org/2000/svg" viewBox="0 0 1148.67 275.48"><defs><style>.b{fill:#fff;}</style></defs><path class="b" d="M810.66,176.85c2.2-.4,3.39-.76,4.59-.81,5.08-.23,10.17-.37,15.26-.53,.78-.02,1.58-.05,2.35,.08,1.91,.32,2.91,1.31,2.58,3.23-.51,3.03-.65,5.94,.56,8.82,.09,.22,.08,.55-.02,.77-1.4,3.17-.33,6.45-.34,9.66-.02,5.6,.23,11.2,.46,16.79,.22,5.33,.58,10.66,.83,15.99,.05,1.03,.02,2.09-.18,3.1-.97,4.89,.31,9.59,1.25,14.3,.18,.91,1.42,1.66,2.26,2.37,.64,.54,1.43,.89,2.57,1.58-1.05,.63-1.63,1.21-2.28,1.32-2.06,.33-4.16,.79-6.21,.65-3.92-.27-7.76-.4-11.65,.45-2.23,.48-3.08-.44-3.39-2.7-.05-.39-.08-.79-.04-1.17,.55-5.82-1.88-10.05-6.17-13.99-9.8-8.99-19.17-18.46-28.75-27.7-2.04-1.97-4.24-3.78-6.41-5.7-2.41,1.27-2.63,3.18-2.64,5.15-.05,6.13,.18,12.27-.18,18.37-.41,7.1,1.13,14.01,1.39,21.03,.08,2.27,.9,4.02,3.52,4.45,.72,.12,1.34,.88,2.47,1.68-1.26,.53-1.92,1.02-2.6,1.05-5.99,.29-11.99,.59-17.99,.71-3.39,.07-3.76-.42-3.83-3.88-.11-5.08-.08-10.17-.24-15.24-.43-13.67-.94-27.34-1.38-41.01-.09-2.99,.06-6,.02-8.99-.05-4.24-.36-4.62-4.41-6.25-.57-.23-1.07-.65-1.49-.91-.17-1.59,.74-2.12,1.82-2.3,1.28-.21,2.6-.29,3.9-.29,4.83,0,9.67,.01,14.5,.08,2.63,.04,3.21,.46,3.71,3.02,.25,1.25,.16,2.58,.1,3.87-.17,3.54,.66,6.5,3.44,9.09,5.34,4.97,10.31,10.34,15.58,15.41,6.3,6.06,12.74,11.97,19.13,17.94,.19,.18,.36,.42,.59,.51,1.04,.4,2.31,1.28,3.1,.97,.73-.28,1.32-1.85,1.34-2.86,.09-4.67-.08-9.35-.09-14.02-.02-5.99,.04-11.99,.01-17.98-.01-2.47-.16-4.94-.25-7.42-.1-2.8-.96-5.07-3.91-6.15-.82-.3-1.42-1.22-2.87-2.54Z"/><path class="b" d="M700.14,255.18c-.52,0-1.05-.04-1.57,0-7.88,.77-15.26-1.51-22.53-3.98-4.99-1.7-9.39-4.73-13.01-8.49-3.51-3.64-6.94-7.56-9.42-11.92-2.97-5.21-4.68-11.03-2.88-17.24,.22-.75,.45-1.55,.4-2.3-.26-3.78,1.65-6.76,3.55-9.72,6.25-9.77,14.59-16.89,25.88-20.29,2.37-.71,4.59-1.91,6.96-2.59,12.13-3.49,24.12-3.48,36.04,1.2,3.88,1.53,7.83,2.78,11.44,4.97,8.52,5.17,14.43,12.41,17.16,21.94,1.39,4.88,1.78,9.98-.01,15-.65,1.82-.71,3.87-1.45,5.64-4.1,9.75-11.4,16.27-21.05,20.32-4.44,1.86-8.96,3.57-13.32,5.6-3.82,1.77-7.82,1.85-11.86,1.87-1.44,0-2.87,0-4.31,0Zm33.48-39.28c-.75-3.13-1.48-6.27-2.25-9.39-1.68-6.84-5.74-12.16-10.85-16.79-3.97-3.59-8.76-5.71-13.88-6.74-2.84-.57-5.98-.29-8.88,.21-3.18,.55-6.25,1.77-9.35,2.76-.97,.31-2.03,.65-2.79,1.28-2.49,2.06-4.98,4.15-7.27,6.43-8.35,8.32-10.38,18.78-8.02,29.63,2.08,9.57,7.26,17.93,16.29,22.93,4.6,2.54,9.6,4.06,15.03,3.18,1.28-.21,2.6-.18,3.9-.29,5.04-.41,9.93-1.71,13.71-5.06,8.36-7.41,14.51-16.1,14.37-28.16Z"/><path class="b" d="M558.43,95.39c-1.86,.43-3.43,1.06-5.02,1.12-4.55,.17-9.1,.15-13.66,.14-2.62,0-3.19-.6-3.04-3.77,.23-4.6-1.17-8.44-4.59-11.57-1.82-1.67-3.59-3.41-5.37-5.13-8.45-8.16-16.86-16.35-25.37-24.45-1.14-1.08-2.19-3.06-4.18-2.34-2.24,.81-1.61,3.03-1.65,4.78-.16,7.67-.37,15.34-.32,23.01,.03,4.16,.48,8.33,.85,12.48,.22,2.45,1.05,4.57,3.82,5.33,.63,.17,1.12,.86,2.04,1.61-1.12,.44-1.78,.91-2.46,.94-5.48,.24-10.95,.48-16.43,.56-3.74,.05-4.08-.35-4.15-3.97-.17-8.61-.2-17.22-.46-25.82-.24-7.94-.76-15.87-1.06-23.81-.15-3.91-.2-7.83-.05-11.74,.11-3.01-.67-5.1-3.94-5.71-.55-.1-1-.7-1.66-1.2,1.89-2.5,4.56-2.16,6.86-2.23,4.03-.11,8.08,.19,12.12,.34,2.7,.1,3.23,.5,3.5,3.11,.17,1.68,.11,3.39,.11,5.08,0,2.2,.71,4.06,2.32,5.61,11.12,10.65,22.22,21.33,33.36,31.96,1.08,1.03,2.19,2.6,3.99,1.85,1.85-.77,1.34-2.66,1.34-4.15,0-10.29,0-20.58-.13-30.87-.03-2.32-.37-4.7-.99-6.94-.34-1.22-1.48-2.29-2.44-3.25-.67-.67-1.65-1.03-2.43-1.49,.54-1.96,1.89-1.65,2.98-1.7,5.08-.24,10.16-.45,15.24-.63,3.45-.12,4.25,1.12,4.2,4.71-.09,6.1,.2,12.2,.33,18.3,.04,1.7,.04,3.39,.11,5.09,.33,7.67,.68,15.34,1,23.01,.05,1.29-.02,2.58,0,3.88,.06,2.99,.21,5.98,.19,8.98-.02,3.35,.77,6.14,4.32,7.39,.17,.06,.22,.44,.72,1.49Z"/><path class="b" d="M832.15,48.65c-.68,1.49-1.54,2.5-1.56,3.52-.13,6.37-.07,12.74-.08,19.11,0,1.03-.09,2.07-.08,3.1,.03,2.34,0,4.68,.16,7.01,.17,2.46,.7,4.91,.79,7.37,.1,2.8,.55,5.19,3.64,6.2,.5,.16,.82,.87,1.47,1.59-.95,.44-1.59,.97-2.25,1-5.48,.25-10.96,.48-16.44,.56-3.01,.04-3.36-.39-3.47-3.4-.26-7.14-.47-14.29-.68-21.43-.3-10.01-.61-20.02-.84-30.04-.07-3,.1-6,.16-8.99,.08-3.55-.69-6.54-4.81-7.35-.23-.05-.46-.25-.64-.43-.17-.18-.28-.43-.57-.9,.52-.43,1.01-1.16,1.61-1.27,1.91-.37,3.87-.69,5.81-.69,3.91,0,7.81,.25,11.72,.33,2.42,.05,3.09,.36,3.51,2.65,.3,1.64,.3,3.38,.17,5.06-.23,3,1.01,5.26,3.1,7.27,9.02,8.7,17.98,17.46,27,26.15,2.06,1.99,4.21,3.91,6.47,5.67,2.39,1.85,4.04,1.28,4.25-1.64,.27-3.75,.41-7.59-.17-11.28-.54-3.41-.66-6.68-.17-10.07,.29-2.02,.1-4.12,.09-6.18,0-.91-.33-1.89-.09-2.72,.95-3.34-.83-6.39-.93-9.63-.03-1.03-1.69-2.08-2.71-3.01-.7-.64-1.58-1.07-3.16-2.12,1.89-.46,2.82-.84,3.77-.89,5.21-.26,10.42-.43,15.64-.64,2.77-.11,3.67,.82,3.81,3.67,.11,2.32,.4,4.63,.62,6.94,.02,.26,.15,.54,.08,.77-1.84,5.96,.18,11.91,.08,17.88-.12,7.16,.42,14.32,.63,21.49,.07,2.47-.18,4.96,0,7.43,.23,3.23,.61,6.47,1.21,9.66,.18,.96,1.21,1.83,1.99,2.59,.6,.58,1.42,.94,2.83,1.83-1.67,.68-2.64,1.28-3.69,1.44-1.67,.26-3.38,.27-5.07,.3-3.12,.05-6.23,0-9.35,.08-3.74,.11-4.33-.2-4.23-3.77,.15-5.5-1.97-9.53-6.15-13.2-6.85-6.03-13.14-12.69-19.71-19.04-3.57-3.44-7.23-6.79-10.89-10.14-.64-.59-1.48-.96-2.88-1.84Z"/><path class="b" d="M648.69,193.55c-.22,.13-.43,.37-.66,.38-5.73,.28-11.47,.52-17.2,.82-2.49,.13-4.43-.73-5.35-3.09-2.78-7.12-8.99-9.04-15.59-10.06-11.84-1.82-21.57,2.42-29.42,11.16-1.42,1.58-2.41,3.74-3.06,5.8-1.53,4.82-3.05,9.68-3.94,14.64-.49,2.7-.09,5.75,.63,8.44,1.13,4.24,2.45,8.54,4.46,12.42,3.82,7.37,10.23,11.63,18.34,13.33,1.66,.35,3.32,.7,4.98,1.01,7.2,1.36,14.03,.17,20.56-3,2.3-1.12,3.59-3.01,3.62-5.61,.08-6.51,0-13.03,.22-19.54,.11-3.19-.81-5.32-4.07-6.13-.44-.11-.8-.58-1.6-1.18,1.01-.58,1.7-1.27,2.44-1.33,1.41-.11,2.86,.09,4.29,.24,5.17,.56,10.33,1.04,15.54,.32,3.4-.47,4.22,.19,4.24,3.71,.02,4.42-.3,8.85-.35,13.27-.04,4.3-.1,8.61,.2,12.89,.28,4.03-.25,4.94-4.32,5.03-5.2,.12-9.9,2.18-14.75,3.66-10.69,3.28-21.54,5.64-32.78,3.88-7.86-1.23-15.55-2.92-22.17-8.04-3.4-2.64-6.78-5.14-9.81-8.26-5.91-6.12-7.67-13.8-8.97-21.66-.5-3.05-.22-6.19,1.11-9.2,1.04-2.36,1.56-4.94,2.38-7.4,1.27-3.81,3.59-6.9,6.74-9.35,3.19-2.47,6.21-5.33,9.76-7.13,7.82-3.98,16.04-6.94,25.07-6.71,1.42,.04,2.85-.28,4.27-.43,1.43-.15,2.88-.53,4.27-.39,5.7,.59,11.38,1.36,17.07,2.04,3.11,.37,6.22,.99,9.33,.97,2.85-.02,4.34,1.34,5.44,3.61,.74,1.52,1.22,3.28,2.31,4.49,2.02,2.26,4.39,4.19,6.76,6.4Z"/><path class="b" d="M757.93,97.8c-8.49,.77-16.35-2.07-24.04-4.82-3.91-1.4-7.53-4.31-10.56-7.26-3.42-3.33-6.52-7.21-8.9-11.34-2.97-5.13-3.77-10.73-2.86-16.92,1.36-9.25,6.99-15.54,13.13-21.55,2.45-2.4,5.75-4.13,8.94-5.56,6.3-2.83,12.68-5.54,19.62-6.52,8.96-1.27,17.63-.56,26.23,2.53,5.95,2.13,11.78,4.33,16.52,8.6,7.37,6.65,12.32,14.69,11.9,24.9-.35,8.36-2.97,16-9.41,22.02-4.75,4.44-9.98,7.84-16.1,10.09-5.12,1.89-9.97,4.58-15.49,5.21-2.98,.34-5.98,.43-8.97,.63Zm-28.44-36.88c-.68,4.93,1.1,10.16,4.02,15.11,.4,.67,.77,1.37,1.13,2.06,8.86,16.66,31.04,18.22,43.03,7.29,2.47-2.25,4.44-5.09,6.49-7.77,4.73-6.2,5.7-13.58,4.66-20.82-1.2-8.41-5.28-15.8-12.07-21.29-5.34-4.32-11.43-6.91-18.42-6.19-3.07,.32-6.05,1.46-9.06,2.29-1.5,.41-3.22,.61-4.41,1.48-9.1,6.68-15.83,14.79-15.38,27.84Z"/><path class="b" d="M644.4,39.67c-.84,.17-1.67,.46-2.52,.48-4.57,.14-9.15,.18-13.72,.32-2.59,.08-4.38-.66-5.49-3.33-2.74-6.58-8.87-8.09-15.01-9-10.87-1.63-19.66,2.64-27.01,10.37-.8,.84-1.62,1.81-1.97,2.88-1.93,5.8-4.34,11.5-4.91,17.66-.19,2.04-.05,4.24,.51,6.2,1.86,6.49,3.57,13.04,8.71,18.07,3.93,3.84,8.66,5.73,13.82,6.9,7,1.58,14,1.81,20.79-.89,4.97-1.98,5.65-3.24,5.61-8.54-.01-1.43-.06-2.9,.21-4.29,.95-4.8,.22-9.59-.08-14.37-.06-.92-1.14-1.92-1.98-2.6-.74-.6-1.81-.81-2.75-1.19,.34-2.19,1.85-1.9,3.06-1.86,4.18,.14,8.35,.41,12.52,.55,2.08,.07,4.16-.02,6.24-.03,1.73,0,2.69,.8,2.7,2.6,.02,3.13,.08,6.26,.07,9.4-.01,5.48-.07,10.96-.09,16.45-.01,3.61-.45,3.95-3.89,4.42-3.22,.44-6.51,.88-9.55,1.96-7.3,2.59-14.88,3.95-22.41,5.56-1.01,.22-2.09,.34-3.11,.25-8.05-.74-16.29-.95-23.74-4.33-4.58-2.07-8.87-5.06-12.76-8.29-8.25-6.86-11.51-16.23-11.8-26.68-.06-2.13,.64-4.36,1.38-6.41,1.36-3.76,2.35-7.91,4.66-11.03,5.15-6.96,12.27-11.38,20.58-14.17,14.66-4.93,29.33-3.79,44.1-1.06,1.65,.31,3.36,.58,5.03,.5,2-.1,3.25,.68,4.09,2.37,.12,.23,.29,.44,.39,.68,1.74,4.13,3.89,7.92,8.55,9.61-.08,.3-.16,.6-.25,.9Z"/><path class="b" d="M488.52,229.89c1.99-4.93,3.87-8.81,5.13-12.88,2.67-8.64,7.16-16.46,10.75-24.69,1.95-4.48-.18-9.82-4.59-11.86-1.03-.48-2.28-.46-3.39-.79-.89-.27-1.73-.71-2.59-1.08,.03-.32,.06-.63,.09-.95,1.04-.29,2.08-.82,3.13-.83,6.27-.05,12.53-.05,18.8,.07,2.83,.05,4.84,1.38,6.13,4.08,1.11,2.32,2.81,4.35,4.1,6.59,2.98,5.17,5.37,10.77,8.91,15.51,4.3,5.77,7.3,12.29,11.54,18.06,1.53,2.09,2.69,4.46,4.02,6.7,2,3.36,4.02,6.7,5.98,10.07,.85,1.45,1.51,3.02,2.38,4.46,1.47,2.44,2.87,4.96,4.66,7.16,.66,.82,2.32,.9,3.55,1.16,1.09,.23,2.15,.43,2.11,1.8-.04,1.3-1,1.71-2.15,1.79-.13,0-.26,.02-.39,.02-5.61,.17-11.22,.28-16.82,.53-2.5,.11-4.2-.82-5.49-2.95-1.96-3.23-4.11-6.35-6.15-9.53-.9-1.41-1.99-2.2-3.81-2.24-9.78-.2-19.56-.65-29.35-.76-4.69-.05-9.38,.47-14.07,.73-.78,.04-1.57,.13-2.35,.09-1.38-.07-3.06,.28-3.43-1.73-.32-1.72,1.35-4.1,3.09-4.37,1.02-.16,2.09-.09,3.13-.09,11.89,0,23.78,0,35.68-.01,1.17,0,2.37,.01,3.5-.24,1.4-.31,1.8-1.92,.59-2.61-1.28-.72-2.9-1.17-4.37-1.18-9.8-.1-19.6-.05-29.4-.05-2.71,0-5.42,0-8.91,0Zm22.2-31.98c-1.75,3.2-3.11,5.39-4.18,7.71-2.35,5.09-4.55,10.24-6.82,15.37-.16,.36-.39,.69-.52,1.05-.42,1.23,.03,2.05,1.28,2.36,.63,.15,1.3,.19,1.95,.16,7.31-.23,14.62-.47,21.93-.75,.48-.02,.96-.32,1.44-.49,.66-2.33-.94-3.82-1.86-5.44-2.44-4.3-4.96-8.55-7.63-12.71-1.45-2.26-3.28-4.29-5.6-7.27Z"/><path class="b" d="M901.76,186.78c-3.93,1.31-7.12,2.37-10.3,3.42-.25,.08-.53,.08-.76,.19-5.75,2.66-10.68,.6-15.29-2.77-4.63-3.39-10.02-3.46-15.34-3.65-2.7-.1-4.91,1.76-5.43,3.75-.6,2.27,.66,5.25,2.98,6.69,5.55,3.44,11.12,6.85,16.73,10.18,.84,.5,1.96,.73,2.95,.73,8.37-.02,16.73-.17,25.1-.2,3.65-.01,6.91-1.01,9.96-3.01,1.36-.89,3.01-1.5,4.61-1.83,1.46-.3,2.46,.6,2.62,2.21,.18,1.82,.43,3.63,.55,5.45,.15,2.17-.43,2.88-2.54,3.1-1.16,.12-2.35,.05-3.53,.06-8.1,.1-16.21,.1-24.31,.33-7.53,.22-15.06,.75-22.59,1.05-2.85,.11-5.82,.4-8.55-.21-2.59-.58-5.15-1.93-7.34-3.48-2.32-1.64-4.2-3.89-6.24-5.91-3.95-3.91-3.64-8.44-1.56-13,1.37-3,3.54-5.41,6.45-7.18,9.38-5.71,19.53-6.96,30.2-5.44,2.33,.33,4.65,.69,6.95,1.16,1.52,.31,3.11,.62,4.49,1.29,2.69,1.31,5.28,2.82,7.84,4.38,.71,.43,1.15,1.3,2.33,2.7Z"/><path class="b" d="M904.1,224.14c2.15,6.86,.64,13.15-4.12,18.29-.71,.76-1.25,1.66-1.92,2.46-.75,.9-1.39,2-2.35,2.59-5.88,3.63-11.84,7.11-19.04,7.46-2.47,.12-4.93,.61-7.4,.58-2.32-.03-4.66-.42-6.95-.84-6.78-1.24-12.76-4.42-18.6-7.88-1.3-.77-2.3-2.04-3.89-3.48,1.29-.97,2.14-1.97,3.21-2.35,3.81-1.34,7.68-2.51,11.56-3.64,1.93-.56,3.5,.51,5.12,1.42,3.4,1.91,6.85,3.72,10.28,5.56,3.7,1.98,7.76,2.13,11.8,2.14,3.41,0,6.31-1.31,8.67-3.87,2.52-2.73,2.75-4.58,.66-7.62-.29-.43-.6-.91-1.03-1.17-6.38-3.82-10.55-10.47-17.5-13.57-.67-.3-1.22-.89-2.31-1.71,1.29-.37,2.07-.78,2.85-.78,15.28-.04,30.57-.04,45.85-.03,.37,0,.73,.19,1.4,.37,.18,2.78,.5,5.61,.5,8.43,0,2.75-1.62,3.92-4.12,2.82-2.49-1.09-4.76-2.68-7.11-4.06-1.65-.97-3.21-2.31-5.57-1.11Z"/><path class="b" d="M651.23,62.1c2.16-.78,4.26-1.07,6.5-.3,1.09,.37,2.32,.49,3.47,.45,4.8-.14,9.59-.5,14.38-.56,7.45-.1,14.91-.07,22.36,0,2.7,.02,2.94,.31,3.18,2.86,.17,1.82,.31,3.65,.28,5.47-.04,2.61-1.38,3.66-3.8,2.8-1.7-.61-3.34-1.55-4.79-2.63-2.96-2.21-6-3.64-9.82-2.5-.95,.28-2.07-.05-3.11-.02-2.58,.08-5.2-.03-7.74,.36-2.7,.41-3.69,1.51-3.77,4.21-.13,4.03,.04,8.08,.19,12.12,.07,1.94,.45,3.87,.6,5.81,.2,2.54,.89,3.51,3.39,4.05,1.13,.24,2.33,.26,3.5,.22,4.18-.13,8.35-.48,12.52-.45,2.77,.02,5.2-.65,7.28-2.37,2.9-2.41,5.73-4.92,8.52-7.46,1.47-1.34,2.87-2.71,5.04-2.65,1.5,.04,2.89,.76,2.5,2.29-.77,3.06,.26,5.95,.3,8.91,.05,3.42-.24,3.99-3.57,4.25-3.11,.24-6.25-.06-9.37,.02-3.13,.07-6.25,.3-9.37,.47-.39,.02-.78,.14-1.17,.13-7.41-.18-14.82-.36-22.23-.55-.39,0-.81-.12-1.17-.02-4.59,1.27-9.29-.05-13.91,.57-1.02,.14-2.11,.07-3.11-.15-.53-.11-1.23-.69-1.32-1.17-.09-.47,.4-1.44,.8-1.54,3.85-1.01,3.58-3.88,3.34-6.86-.3-3.76-.68-7.54-.64-11.31,.04-4.67,.46-9.34,.74-14.42Z"/><path class="b" d="M948.86,32.18c-1.8,2.41-4.73,2.13-6.98,3.22-1.38,.67-3.01,.85-4.52,1.26-3.4,.94-6.54,1-9.67-1.25-4.3-3.08-9.12-5.1-14.56-5.02-1.68,.02-3.43-.01-5.03,.43-2.87,.8-3.99,3.08-2.77,5.8,.66,1.46,1.82,2.94,3.15,3.8,4.7,3.06,9.55,5.89,14.4,8.72,1.08,.63,2.4,1.24,3.6,1.23,7.97-.02,15.94-.27,23.91-.32,3.42-.02,6.39-1.04,9.15-2.98,.94-.66,1.98-1.35,3.08-1.62,2.52-.62,3.61,.31,3.75,2.93,.03,.65-.05,1.31,.01,1.96,.69,6.74-1.22,5.46-5.53,5.49-10.19,.08-20.39,.05-30.58,.21-3.91,.06-7.8,.66-11.71,.81-3.12,.12-6.31,.29-9.36-.21-2.36-.39-4.74-1.5-6.8-2.77-3.48-2.16-6.09-5.29-8.36-8.68-1.37-2.05-1.06-4.18-.51-6.39,1.59-6.33,6.17-9.74,11.76-12.18,8.18-3.56,16.62-4.24,25.3-2.29,1.14,.26,2.32,.36,3.49,.42,2.95,.15,5.71,1,8.05,2.74,2.15,1.59,5.15,1.99,6.69,4.69Z"/><path class="b" d="M647.01,25.05c1.24-1.79,3.16-1.49,4.94-1.51,10.33-.08,20.65-.1,30.98-.18,6.53-.05,13.07-.15,19.6-.21,1.44-.01,2.88,0,4.31,.05,1.56,.06,2.37,.87,2.38,2.47,.01,2.87,.2,5.74,.06,8.61-.17,3.44-2.54,4.61-5.35,2.57-3.06-2.22-6.01-4.6-8.81-7.14-2.81-2.55-6.06-3.42-9.71-3.41-3.51,.01-7.02-.04-10.53-.02-1.17,0-2.37,0-3.5,.28-2.55,.61-3.61,1.73-3.66,4.38-.07,3.38,.15,6.76,.33,10.14,.08,1.56,.35,3.11,.54,4.66,.4,3.2,1.92,4.77,5.11,4.74,4.7-.04,9.43-.09,14.08-.64,2.07-.25,3.98-1.76,5.96-2.69,1.4-.65,2.74-1.57,4.21-1.87,2.02-.41,2.87,.43,3.11,2.46,.06,.52,.02,1.04,.04,1.56,.19,6.42,.19,6.26-6.27,6.12-4.95-.1-9.91,.42-14.87,.39-8.75-.05-17.5-.29-26.24-.5-3.13-.07-3.69-.57-3.78-3.65-.15-5.09-.18-10.18-.18-15.26,0-6.62,.03-6.62-2.77-11.34Z"/><path class="b" d="M920.82,62.89c1.47-1.3,3.24-1.08,5.05-1.06,6.64,.05,13.28,0,19.92-.04,6.14-.03,12.28-.07,18.42-.1,1.35,0,2.29,.57,2.48,1.97,.27,2.06,.67,4.14,.65,6.21-.02,2.84-1.85,4.01-4.48,2.82-2-.91-3.8-2.27-5.67-3.47-1.64-1.05-3.25-2.11-5.74-1.75,.38,1.67,1.01,3.14,1,4.59-.04,4.63-.8,9.04-4.3,12.57-1.36,1.37-2.12,3.47-3.64,4.54-5.35,3.75-10.97,7.05-17.75,7.55-2.47,.18-4.94,.54-7.41,.56-2.06,.02-4.14-.22-6.18-.56-6.67-1.12-12.66-3.96-18.3-7.56-1.26-.8-2.27-1.99-3.85-3.39,1.55-.98,2.51-1.88,3.65-2.27,3.45-1.2,6.93-2.39,10.48-3.19,1.19-.27,2.74,.45,3.95,1.05,3.84,1.9,7.48,4.23,11.41,5.89,4.23,1.79,8.75,2.89,13.33,1.14,1.55-.59,3.08-1.47,4.35-2.53,3.11-2.6,3.17-5.87,.3-8.75-.73-.73-1.65-1.27-2.5-1.87-.75-.52-1.72-.84-2.26-1.51-3.41-4.28-7.98-7.07-12.49-9.96-.18-.11-.22-.43-.44-.87Z"/><path class="b" d="M674.72,223c2.16-3.15,3.93-5.83,5.81-8.42,1.36-1.88,2.84-3.69,4.33-5.48,1.89-2.26,4.4-2.6,7.13-2.09,5.9,1.11,11.81,2.15,17.69,3.35,4.06,.83,7.78,.4,11.09-2.25,1.65-1.32,3.42-1.76,5.85-.37-.6,1.28-.93,2.7-1.77,3.66-3.35,3.82-6.87,7.49-10.31,11.23-1.48,1.61-3.2,1.87-5.33,1.52-6.68-1.12-13.37-2.26-20.1-2.93-2.33-.23-4.84,.7-7.17,1.43-2.15,.67-4.2,1.2-7.23,.34Z"/><path class="b" d="M780.55,53.9c-.94,1.49-1.66,3.01-2.73,4.22-2.25,2.54-4.7,4.89-7.03,7.35-1.2,1.27-2.63,1.58-4.28,1.32-4.77-.75-9.56-1.36-14.29-2.27-2.4-.46-4.61-.44-6.89,.44-2.02,.78-4.09,1.78-6.67,.81,.24-.8,.28-1.59,.68-2.12,2.25-3.02,4.5-6.06,6.96-8.91,.76-.88,2.14-1.51,3.33-1.69,1.51-.23,3.13-.04,4.67,.22,4.23,.72,8.46,1.51,12.66,2.41,3.01,.64,5.7-.02,8.22-1.59,1.62-1.01,3.19-1.69,5.39-.19Z"/><path class="b" d="M1145.47,136.19c-7.44,2.41-14.99,4.54-22.32,7.27-5.76,2.14-11.59,3.93-17.49,5.61-4.25,1.21-8.3,3.05-12.5,4.43-6.19,2.04-12.43,3.91-18.65,5.85-.62,.2-1.36,.21-1.87,.55-4.81,3.23-10.52,2.72-15.84,3.8-1.85,.38-3.92,.12-5.82-.22-9.77-1.75-19.49-3.75-29.28-5.37-4.1-.68-8.32-.87-12.49-.92-10.72-.12-21.45,.08-32.17-.06-101.72-1.37-203.45-.94-305.17-.43-74.14,.38-148.27,.05-222.4,.46-2.34,.02-4.69,0-6.98,0,2.49-2.67,4.56-5.95,6.43-10.17,.64-1.44,1.36-2.27,2.55-2.98,.58-.34,1.11-.71,1.6-1.1,13.3,.22,26.6,.15,39.91,.18,9.14,.02,18.27,.08,27.4,0,8.62-.08,17.24-.46,25.87-.45,9.66,.01,19.33,.47,29,.44,37.91-.1,75.82-.34,113.74-.46,6.26-.02,12.53,.5,18.79,.45,13.46-.1,26.92-.42,40.38-.6,3.92-.05,7.84,.11,11.76,.11,71.14,.01,142.28,.02,213.42-.01,7.58,0,15.17-.12,22.75-.42,10.04-.39,20.09-.84,30.12-1.6,9.5-.71,18.97-1.84,28.45-2.84,1.79-.19,3.62-.52,4.85-2.01-.2-1.79-1.65-1.73-2.68-1.88-6.72-.93-13.44-2.1-20.2-2.54-12.76-.84-25.57-1.01-38.34-1.89-16.17-1.11-32.36-1.4-48.56-1.33-12.55,.06-25.1,.23-37.66,.22-33.07-.04-66.15-.19-99.23-.2-20.66-.02-41.32,.2-61.98,.19-13.59-.01-27.19-.35-40.79-.35-84.08,.02-168.17,.09-252.25,.14-.82,.01-1.65,.02-2.48,.03l-.24-.89-2.04,.85h-.01c-.37-.01-.74-.04-1.11-.08-.2-.02-.41-.06-.62-.12-.36-1.52-.8-3.06-1.45-4.55-.59-1.36-1.33-2.62-2.11-3.84,1.61-.19,3.18-.37,4.76-.54,2.13-.24,7.48-.82,10.84-4.96h.32c25.11,0,50.22,0,75.33,.05,52.04,.07,104.09,.16,156.13,.22,54.93,.07,109.85,.06,164.77,.18,43.41,.09,86.81,.4,130.22,.45,11.23,.02,22.44-.51,33.44-3.33,6.7-1.71,13.48-3.1,20.26-4.51,4.97-1.03,9.89-1.64,15.07-.45,6.34,1.45,12.87,2.1,19.31,3.11,.65,.1,1.32,.14,1.93,.34,10.15,3.38,20.85,4.65,30.98,8.26,6.84,2.44,14.13,3.65,21.19,5.51,3.91,1.03,7.79,2.21,11.64,3.45,1.09,.35,2.15,1.02,3.01,1.78,2.8,2.5,2.05,6.02-1.49,7.17Z"/><path class="b" d="M344.16,119.01c-.84-1.32-1.9-3-2.25-5.07-.68,0-1.64,.05-3.06,.05-17.77,.06-35.54,.23-53.28-1.16-1.31-.1-2.86,.08-3.41-1.37-1.34-3.53-4.13-3.88-7.29-3.68-1.31,.08-2.62,.07-3.92,.09-8.09,.11-16.19,.96-24.17-1.31-7.53-2.14-14.68-4.93-20.04-10.87-3.75-4.16-7.44-8.42-10.7-12.96-6.95-9.7-12.18-20.37-16.85-31.31-.42-.99-1.04-1.89-1.62-2.92-2.67,2.27-3.02,3.09-3.77,6.6-1.27,6-.14,11.98,.19,17.94,.42,7.41,1.5,14.78,2.17,22.17,.6,6.59,.52,6.76,7.01,7.1,8.44,.45,15.65,3.78,22.23,8.77,.74,.57,1.24,1.46,2.42,2.89-2.21,.12-3.58,.26-4.94,.26-12.03-.06-24.06-.19-36.09-.22-16.74-.04-33.47-.02-50.21,0-4.96,.01-9.93,.25-14.89,.19-2.73-.04-5.54-1.03-8.15-.62-8.1,1.27-16.2,.55-24.29,.62-12.42,.12-24.84,.06-37.26,.01-4.78-.01-5.42-.59-6.95-5.19-.57-1.69-1.26-3.33-1.92-5.06-1.32,.24-2.2,.43-3.09,.56-8.58,1.21-16.81,.34-23.78-5.24-2.7-2.16-4.72-5.16-7-7.82-1.43-1.68-2.55-3.69-4.18-5.13-2.17-1.91-4.48-1.06-4.82,1.78-.66,5.57-.28,10.81,4.27,15.14,9.12,8.69,16.15,19.15,23.95,28.95,1.3,1.62,1.58,3.06,.19,4.89-7.66,10.09-14.98,20.47-24.08,29.35C.09,170.82-.45,175.97,.27,181.55c.38,2.93,2.64,3.72,4.76,1.71,1.68-1.6,3.09-3.53,4.39-5.47,6.91-10.24,16.55-14.23,28.67-12.77,1.63,.19,3.28,.35,4.91,.52,.45-.96,.84-1.51,.97-2.12,.91-4.29,3.89-5.41,7.84-5.38,4.83,.03,9.67-.18,14.5-.19,11.51-.03,23.01-.05,34.51,.01,2.47,.01,4.94,.33,7.4,.59,3.1,.33,6.14,.76,9.32,.04,2.38-.54,4.93-.42,7.41-.37,5.46,.12,10.92,.56,16.38,.55,6.13-.02,12.26-.54,18.39-.57,4.69-.02,9.39,.61,14.08,.57,12.02-.09,24.03-.41,36.05-.61,6.66-.11,13.33-.16,20-.19,.82,0,1.64,.31,2.97,.58-.89,1.06-1.34,1.83-2,2.34-1.85,1.44-3.85,2.71-5.69,4.16-7.33,5.8-15.58,8.89-24.99,8.85-2.96-.02-3.38,.48-3.73,3.32-.49,4.01-1.09,8.02-1.41,12.04-.67,8.32-1.39,16.64-1.67,24.97-.11,3.32,.78,6.69,1.44,10,.29,1.5,1.12,2.9,3.16,3.08,.38-.76,.75-1.43,1.05-2.13,6.6-15.73,14.57-30.61,26.16-43.35,5.08-5.59,11.28-9.28,18.39-11.41,10.93-3.28,22.06-4.1,33.35-2.16,.98,.16,2,.13,2.95,.18,1.53-2.91,2.9-5.57,4.33-8.2,.7-1.28,1.54-2.41,3.25-2.45,6.14-.14,12.27-.37,18.41-.48,7.04-.12,14.1-.16,21.14-.26-1.13-3.92-1.5-8.47-1.02-12.83-.21-.04-.42-.07-.62-.07-7.19,.11-14.37,.29-21.55,.45-1.6,.03-3.37,.79-4.52-.94,.1-.43,.09-.74,.23-.93,3.71-5.01,3.64-5.87-.9-9.99-.48-.44-1.1-.77-1.47-1.28-.48-.67-.76-1.47-1.41-2.76,1.95-.13,3.33-.3,4.72-.3,8.76-.02,17.53-.29,26.28,.11,2.2,.1,4.23-.03,6.14-.48,2.53-2.92,6.08-5.75,11.39-8.8-.02-.04-.04-.08-.07-.12Zm-268.86,20.49c-2.19-.27-4.44,0-6.66-.07-.84-.03-1.67-.35-2.8-.6,1.95-4.11,4.35-6.71,9.08-6.11,1.93,.24,3.92-.02,5.88,.06,.83,.03,1.65,.37,2.79,.64-1.92,3.66-3.68,6.65-8.29,6.08Zm33.42-.09c-4.15,1.44-8.33,.19-13.22-.46,1.86-2.19,3.15-3.77,4.5-5.29,.33-.37,.83-.77,1.28-.82,3.99-.43,7.96-.32,12.14,.32-.52,3.37-2.26,5.4-4.7,6.25Zm28.45,.01c-2.61,.09-5.23,.08-7.84,.01-.83-.02-1.65-.35-3.06-.68,1.42-1.79,2.42-3.27,3.67-4.52,.68-.68,1.76-1.31,2.68-1.33,3.61-.08,7.23,.09,11.28,.18-1.46,4.7-3.18,6.22-6.73,6.34Zm33.03-.48c-4,1.05-8.12,.32-12.6,.13,1.16-3.63,2.84-5.62,6.09-6.04,3.38-.43,6.71-.3,10.36,.53-.23,2.97-1.79,4.85-3.85,5.38Zm35.4,.82c-4.14-.05-8.29,.07-12.43,.15-1.92,.03-3.87,.23-5.56-1.32,.17-.56,.18-.7,.25-.8,4.62-5.75,2.58-5.13,10.58-5.12,2.47,.01,4.94-.04,7.41-.01,3.05,.03,5.16,1.58,5.07,3.68-.09,2.07-2.44,3.45-5.32,3.42Z"/><path class="b" d="M492.72,250.7c-3.55-.53-6.06-1.92-7.89-5.42-2.47-4.7-5.42-9.32-8.98-13.24-4.38-4.83-6.73-10.85-10.7-15.87-1.48-1.87-.93-2.84,1.36-3.67,3.06-1.1,6.13-2.2,9.13-3.45,4.26-1.78,7.25-4.76,9.39-8.96,3.51-6.87-1.1-17.61-7.14-20.6-7.18-3.56-14.8-2.7-22.27-3.22-5.29-.36-10.65,.31-15.99,.38-6.53,.08-13.06-.02-19.6,.07-1.45,.02-3.56-.4-3.88,1.68-.34,2.26,1.76,2.15,3.25,2.41,1.93,.34,2.95,1.29,2.98,3.41,.08,6.49,.43,12.98,.42,19.46-.02,8.32-.53,16.65-.37,24.96,.17,8.57,.9,17.13,1.4,25.92,.46,.15,1.06,.52,1.65,.52,6.27,.01,12.54-.01,18.8-.1,1.13-.02,2.45-.12,2.65-2.11-.81-.36-1.84-.61-2.58-1.21-.84-.68-1.95-1.65-2.03-2.57-.31-3.74-.29-7.52-.35-11.29-.02-1.3,.49-2.74,.07-3.87-1.43-3.87-.34-7.75-.34-11.61-.01-1.49-.12-3.17,2.31-4.52,.57,.69,.95,1.53,1.46,2.27,3.25,4.72,6.62,9.37,9.78,14.14,1.58,2.37,2.69,5.03,4.23,7.42,2.26,3.5,4.76,6.85,7.07,10.31,1.35,2.02,3.08,3.07,5.55,3.01,3-.06,6.01,.07,9.01-.03,4.05-.13,8.08-.4,12.12-.64,1.16-.07,2.41-.09,3.09-2.34-1.27-.45-2.4-1.05-3.6-1.24Zm-39.73-43.9c-1.93,.2-3.86,.57-5.76,.96-4.26,.87-6.1-.77-5.72-5.16,.04-.39,.08-.78,.17-1.61-.06-.86-.02-2.18-.27-3.44-.59-2.97-.68-5.89-.08-8.9,.3-1.47,.05-3.09-.11-4.62-.25-2.53,.47-3.95,2.88-4.11,7.38-.47,14.38,.31,19.18,7.03,1.27,1.77,2.13,3.55,1.6,5.79-.15,.62-.19,1.28-.23,1.93-.37,7-4.62,11.39-11.66,12.13Z"/><path class="b" d="M475.99,93.51c-.43,2.16-1.75,2.83-3.19,2.95-2.3,.18-4.63,.1-6.94,.05-.32-1.31-.78-2.57-1.35-3.79-.41-.87-.87-1.64-1.4-2.53-.25-.41-.52-.86-.82-1.38l-3.4-5.92-2.82,6.22c-.18,.4-.33,.7-.45,.95-.27,.55-.5,1.04-.66,1.67-.45,1.75-1.22,3.15-2.35,4.23-.4-.51-.36-1.29-.33-2.03,.03-.39,.06-.79-.01-1.17-.32-1.89-1.22-2.44-3.04-1.69-1.92,.8-3.76,1.8-5.67,2.65-8.85,3.9-18.11,4.33-27.62,3.72-7.87-.5-15.05-3.17-21.03-7.7-1.07-.81-2.1-1.7-3.04-2.66l.3-1.25-1.74-.35c-2.65-3.22-4.41-7.18-4.4-11.97,.02-5.59-.67-11.18-.98-16.77-.11-1.94-.04-3.88-.03-5.82,.02-3.13,.11-6.26,.06-9.39-.04-2.73-.48-5.48-.29-8.19,.21-2.93,0-5.2-3.5-5.83-.5-.09-1.05-1.05-1.16-1.68-.06-.34,.72-1.15,1.19-1.21,7.37-.92,14.75-1.42,22.35-.9,.3,5.04,.75,9.69,.79,14.34,.06,5.99-.77,12.04-.21,17.97,.65,6.98-.71,14.15,1.82,20.95,.54,1.45,.95,3.07,1.89,4.23,5.41,6.76,11.84,10.87,21.22,9.93,7.31-.72,13.69-2.78,19.31-7.42,2.17-1.79,3.3-3.97,3.3-6.76,.03-5.87,.08-11.73,.1-17.59,.02-2.34-.01-4.69-.02-7.04,0-.13,.03-.26,.02-.39-.43-5.93-1.09-11.77-.12-17.8,.53-3.34-.79-7.07-5.05-8.28-.27-.08-.41-.61-.71-1.07,.98-1.9,2.76-2.31,4.58-2.26,5.09,.14,10.17,.43,15.26,.67,1.81,.08,2.46,1.16,2.51,2.83,.19,6.12,.38,12.25,.62,18.36,.21,5.34,.49,10.67,.73,16.01,.08,1.69,.15,3.39,.19,5.08,.15,5.34,.31,10.68,.39,16.02,.03,1.42-.2,2.84-.32,4.27-.35,4.09,.39,5.24,4.22,6.74,.59,.23,1.11,.61,1.8,1Z"/><g><path class="b" d="M376.66,45c-.09,1.56-.01,3.13-.01,4.7-.02,4.29-.13,8.49-1.41,12.74-.94,3.11-1.34,6.34-3.26,9.07-2.26,3.22-4.5,6.45-6.86,9.59-8.17-2.22-16.36-2.46-25.99-2.1,4.77-5.27,7.51-11.58,9.6-18.33,2.25-7.28,1.95-14.38-.46-21.47-1.17-3.43-1.9-6.95-3.55-10.29-3.14-6.34-8.22-10.34-14.08-13.69-2.49-1.42-5.05-2.72-7.59-4.07-.57-.3-1.15-.65-1.77-.8-8.64-1.99-17.11-4.81-26.15-4.64-4.65,.08-5.16,.58-5.39,5.36-.22,4.26-1.02,8.5-1.08,12.75-.08,5.06,.5,10.14,.52,15.2,.01,2.82-.53,5.63-.88,8.99h-4.94c-7.71,0-15.42,.01-23.13-.01-4.43,0-8.85-.05-13.27-.08-2.32-.01-3.5-1.07-3.43-3.29,.07-2.08,.34-4.15,.51-6.23,.15-1.79,1.31-2.76,2.89-2.35,1.84,.48,3.68,1.3,5.22,2.4,2.29,1.64,4.72,2.78,7.45,3.29,3.22,.59,4.35-.07,5.09-3.21,.31-1.35,.27-2.82,.24-4.23-.01-.9-.57-1.82-.45-2.68,.9-6.5-.74-12.9-.66-19.36,.07-4.66-.03-4.89-4.29-6.65-1.49-.62-3.49-1-3.28-3.26,.14-1.57,1.68-2.35,4.35-2.35,13.72,.01,27.45,.05,41.17,.08,.39,0,.8-.07,1.17,.01,9.08,2.03,18.47,1.16,27.55,3.01,2.93,.59,5.86,1.36,8.62,2.48,5.54,2.25,11.46,3.64,16.5,7.04,6.23,4.18,11.87,9.19,15.9,15.43,3.21,4.97,5.54,10.66,5.15,16.95Z"/><path class="b" d="M354.2,90.14c-1.5,1.23-3.18,1.97-4.81,2.73-3.02,.15-5.4,1.14-7.13,2.97h0c-4.93,1.57-10.07,2.2-15.33,2.33-2.86,.07-5.71,.66-8.57,.81-6.91,.37-13.82,.67-20.73,.91-7.82,.28-15.65,.48-23.48,.71-1.7,.05-3.4,.19-5.09,.11-3.39-.15-6.77-.39-10.15-.67-.84-.07-1.65-.45-2.57-.72,.42-2.24,1.91-2.91,3.55-3.49,3.68-1.31,3.79-1.62,3.99-5.23,.35-6.36,.9-12.71,1.24-19.08,.13-2.33,.02-4.69-.15-7.03-.18-2.5-.89-3.18-3.31-3.6-2-.34-3.91-.19-5.64,1-1.29,.89-2.54,1.85-3.88,2.65-1.34,.8-2.7,1.68-4.17,2.11-3.32,.96-4.67-.15-4.62-3.56,.02-1.44,.09-2.88,.25-4.3,.12-1.16,.41-2.3,.71-3.94h43.83c.16,1.19,.38,2.06,.38,2.92-.02,5.85-.09,11.7-.12,17.56-.02,4.82-.1,9.64,0,14.46,.07,3.29,.44,3.76,3.68,4.56,4.07,1.01,8.16,1.79,12.31,.12,1.05-.43,2.31-.55,3.47-.5,6.71,.27,12.32-2.95,18.08-5.66,2-.94,3.83-2.23,5.2-3.04,.36,.03,.72,.07,1.06,.11l.13,1.97,3.01,.24c1.29,.11,2.59,.19,3.9,.28,5.22,.35,10.25,.68,14.96,2.27Z"/></g><g><path class="b" d="M415.69,233.73c-1.47,7.39-4.98,13.92-10.62,19.18-4.87,4.55-9.54,9.35-15.83,11.98-3.96,1.66-8.11,2.91-11.98,4.74-5.7,2.71-11.84,3.19-17.89,3.86-10.77,1.19-21.58,1.9-32.44,1.83-10.59-.06-21.17,.12-31.76,.16-1.43,0-2.9,0-4.28-.32-.74-.16-1.79-.96-1.86-1.57-.09-.85,.39-2,1.02-2.63,.7-.69,1.82-.97,2.78-1.38,3.46-1.47,4.16-2.29,3.92-5.84-.26-3.95-.07-7.81,1.05-11.62,.32-1.11,.4-2.32,.4-3.49-.01-4-.74-7.92-.22-12.02,.52-4.09-1.15-5.12-5.35-5.19-2.91-.04-5.31,1.01-7.59,2.68-1.58,1.15-3.18,2.36-4.96,3.09-2.44,1.01-3.7,.08-4.02-2.54-.24-1.93-.41-3.88-.69-5.8-.43-2.96,.58-4.18,3.5-4.12,7.57,.17,15.14,.46,22.71,.46,5.6,0,11.21-.48,16.82-.59,4.3-.08,4.7,.26,4.79,4.65,.14,6.52-.1,13.05,.03,19.56,.12,5.72,.43,11.44,.83,17.15,.2,2.91,1.73,4.14,4.78,3.87,7-.6,13.93-1.43,20.86-3.05,6.11-1.43,11.48-4.03,16.93-6.79,7.75-3.93,14.01-9.34,17.01-17.58,2.75-7.57,5.31-15.35,4.64-23.59-.48-5.88-2.8-11.31-5.09-16.72-3.2-7.58-8.73-12.9-15.69-16.95,.8,.15,1.63,.27,2.48,.37l7.98,.92-4.76-6.47c-.55-.74-1.06-1.41-1.53-2.02-.87-1.13-1.56-2.01-2.07-2.9-.26-.45-.33-.73-.34-.86,.11-.08,.38-.22,.91-.32,1.99-.36,3.88-.05,5.6,.93,1.97,1.13,3.85,2.43,5.27,3.45,6.39,4.54,12.79,7.16,19.41,7.88h.01c1.6,1.35,2.95,2.97,4.22,4.74,1.59,2.21,3.25,4.36,4.84,6.57,2.13,2.95,4.37,5.84,4.61,9.72,.08,1.28,.52,2.56,.92,3.79,2.46,7.53,2.15,15.24,.65,22.78Z"/><path class="b" d="M353.68,178.29c-.06-.02-.11-.04-.16-.06-2.8-1.13-5.63-1.95-8.73-1.83-1.53,.05-3.16-.24-4.61-.75-4.41-1.54-8.8-.8-13.13,0-3.71,.69-4.08,1.28-4.14,4.93-.09,6.09-.06,12.19-.05,18.28,.01,5.06,.11,10.12,.11,15.18,.01,2.89-.21,3.2-3.08,3.27-6.13,.16-12.27,.22-18.4,.25-7.18,.03-14.35,0-21.53-.03-1.28,0-2.55-.12-4.02-.2-.39-3.19-.9-6.11-1.04-9.05-.14-2.75,.7-3.35,3.5-3.42,2.52-.06,4.5,1.19,6.47,2.47,1.43,.91,2.81,1.9,4.22,2.84,1.77,1.17,3.69,1.14,5.65,.6,1.97-.53,3.17-1.63,3.22-3.83,.11-4.42,.31-8.79-.74-13.21-.68-2.85-.32-5.95-.4-8.95-.04-1.3,0-2.6-.01-3.91-.01-4.98-.07-5.07-4.59-6.91-.48-.2-.98-.37-1.45-.59-1.16-.54-2.18-1.44-1.55-2.7,.36-.71,1.61-1.34,2.47-1.37,5.09-.17,10.19-.35,15.27-.14,5.59,.23,11.16,.96,16.75,1.28,2.2,.13,4.42-.33,6.63-.35,1.89,0,3.79-.02,5.68,0l.3,.33,.03-.32c3.73,0,7.45,.02,11.18,.02,.05,0,.09,0,.14,.01,1.61,2.89,3.47,5.7,6.01,8.16Z"/></g><path class="b" d="M385.14,136.65c-1.5-1.47-2.6-2.99-4.07-3.9-5.52-3.4-11.44-5.08-17.91-3.04-4.73,1.49-6.29,4.28-5.45,9.23,1.27,7.45,6.13,12.27,12.19,15.9,5.53,3.31,11.77,5.05,18.18,5.59,4.53,.38,9.17,.5,13.66-.03,7.98-.93,14.25-4.78,17.81-12.51-.28-.59-.67-1.27-.93-1.99-.42-1.16-.07-2.19,1.09-2.54,1.44-.43,3.07-.81,3.14-2.46,.07-1.46-.61-2.97-1.01-4.44-.19-.71-.51-1.38-.82-2.2,3.88,.54,6.21,3.14,6.27,6.75,.03,2.17,0,4.33,0,6.29-1.04,2.04-2.23,3.98-3.06,6.07-2.91,7.27-7.38,13.15-14.42,16.88-1.15,.61-2.35,1.16-3.44,1.87-2.42,1.59-2.78,3.46-.76,5.5,1.13,1.14,2.83,1.73,4.27,2.56,.52,.3,1.06,.57,1.62,1.61-1.43,.32-2.84,.82-4.28,.94-9.03,.77-16.94-2.17-24.19-7.33-1.8-1.28-3.65-2.53-5.57-3.63-2.46-1.4-5.18-1.84-7.96-1.33-3.52,.64-4.76,3.27-2.97,6.37,.95,1.64,2.23,3.09,3.82,5.25-5.51-.64-9.69-2.26-13.34-5.42-4.38-3.79-6.72-8.89-9.24-13.88-.76-1.51-1.25-3.16-2.08-4.63-.76-1.34-1.67-2.68-2.78-3.72-1.43-1.34-3.1-2.38-5.31-1.5-2.19,.86-3.29,2.5-3.64,4.69-.24,1.47-.29,2.96-.45,4.72-4.44-4.76-5.64-16.56-2.58-24.35,2.25-5.73,5.44-10.8,17.86-17.35-.72-3.1-4.01-5.36-3.45-8.85,.5-3.13,1.4-6.2,2.22-9.69-1.79,.19-3.27,.35-4.77,.51,.89-4.37,3.12-6.36,7.85-6.22,5.06,.15,9.15-2.45,14.49-3.88-8.95-7.91-19.42-7.54-29.53-8.37l-.06-.89c1.15-.24,2.3-.66,3.46-.71,9.01-.34,17.94-.26,26.73,2.42,3.31,1.01,6.99,.72,10.46,1.27,3.84,.61,7.64,1.52,11.72,2.35-.61,2.61,.72,3.52,2.59,4.62,3.23,1.9,6.16,4.34,9.09,6.7,1.06,.85,1.76,2.14,2.4,3.63-6.12-1.69-12.04-3.8-18.9-4.09,2.02,3.54,5.68,3.98,8.43,5.96-2.16,3.42-5.53,4.44-9.34,6.36,1-2.13,1.68-3.57,2.34-4.95-3.09-3.61-7.87-5.18-12-3.86,.07,1.18,.14,2.41,.25,4.31-1.39-.99-2.39-1.7-3.38-2.43-1.95-1.43-2.74-1.35-4.17,.57-4.37,5.86-1.23,11.92,2.99,14.02,1.94,.97,4.16,1.48,6.3,1.91,3.92,.78,7.71,1.71,9.86,5.53,1.72,3.05,2.24,6.23,.72,9.83Z"/><path class="b" d="M449.02,133.52c1.47-.61,2.61-1.09,3.76-1.56,1.14,4.19,.36,7.01-3.07,9.03-1.95,1.15-3.11,2.62-3.98,4.58-1.75,3.96-3.93,7.64-7.21,10.59-.72,.65-1.13,1.64-2.04,3,2.24,.61,4.03,1.1,6.02,1.65-.58,2.39-2.42,3.54-4.63,3.87-1.9,.28-4.06,.49-5.79-.15-2.74-1.01-4.81-.19-6.96,1.19-2.3,1.47-4.66,2.78-8.12,2.9,.81-.95,1.21-1.54,1.73-2,4.42-3.96,7.05-8.98,8.75-14.57,.3-.97,.47-2.23,1.16-2.8,3.08-2.52,4.43-6.11,5.92-9.51,3.55-8.06-.74-17.85-9.29-21.68-5.42-2.43-10.93-2.37-16.32,.04-2.65,1.18-4.68,3.1-5.71,6.49,1.58-.29,2.65-.49,4.11-.76,.2,4.56,1.09,8.83,5,11.77-8.23,4.04-21.17-2.59-20.96-12.24,.7,.17,1.38,.33,2.19,.52,0-.53,.06-.91,0-1.26-.56-2.85-.71-5.61,.4-8.44,1.44-3.64,3.94-5.97,7.51-7.49,4.94-2.11,10.16-2.34,15.37-2.52,5.35-.18,10.71-.13,16.07-.03,5.82,.11,11.43-.92,16.93-2.67,4.43-1.4,7.36-4.31,8.53-8.87,.12-.46,.39-.89,.91-2.04,.9,1.57,1.58,2.57,2.08,3.65,2.03,4.32,2.03,8.9,1.14,13.41-.96,4.86-4.26,7.15-10.35,7.82-3.35,.37-6.7,.77-10.46,1.2,1.83,2.88,3.79,5.31,4.99,8.06,1.16,2.67,1.55,5.67,2.35,8.82Z"/></svg>